<svg width="57" height="81" viewBox="0 0 57 81" fill="none" xmlns="http://www.w3.org/2000/svg">
<g id="Group 6">
<rect id="Rectangle 25" width="57" height="80.1562" fill="#144356"/>
<g id="Group 2">
<path id="Vector" fill-rule="evenodd" clip-rule="evenodd" d="M15.113 13.3938C15.0235 13.2541 14.9339 13.1493 14.8085 13.0446C14.683 12.9398 14.5397 12.87 14.3784 12.8176C14.2172 12.7653 14.0559 12.7304 13.8768 12.7304C13.5543 12.7304 13.2855 12.7827 13.0705 12.9049C12.8555 13.0271 12.6763 13.1843 12.533 13.3763C12.3896 13.5683 12.3 13.7953 12.2284 14.0572C12.1746 14.3016 12.1388 14.5634 12.1388 14.8428C12.1388 15.1046 12.1746 15.349 12.2284 15.5935C12.2821 15.8379 12.3896 16.0648 12.533 16.2569C12.6763 16.4489 12.8555 16.606 13.0705 16.7282C13.2855 16.8504 13.5543 16.9028 13.8768 16.9028C14.3068 16.9028 14.6472 16.7806 14.8801 16.5187C15.131 16.2569 15.2743 15.9252 15.3281 15.5062H16.6898C16.6539 15.8902 16.5643 16.2394 16.4031 16.5536C16.2598 16.8679 16.0627 17.1298 15.8118 17.3567C15.561 17.5837 15.2743 17.7408 14.9518 17.863C14.6293 17.9852 14.253 18.0376 13.8588 18.0376C13.3751 18.0376 12.9272 17.9503 12.533 17.7932C12.1388 17.636 11.8163 17.4091 11.5296 17.1123C11.2609 16.833 11.0458 16.4838 10.9025 16.0997C10.7592 15.7157 10.6875 15.2967 10.6875 14.8428C10.6875 14.3889 10.7592 13.9524 10.9025 13.5509C11.0458 13.1493 11.2609 12.8176 11.5296 12.5209C11.7984 12.2241 12.1388 11.9971 12.533 11.8225C12.9272 11.648 13.3572 11.5781 13.8588 11.5781C14.2172 11.5781 14.5397 11.6305 14.8622 11.7178C15.1668 11.8225 15.4535 11.9622 15.7043 12.1542C15.9552 12.3463 16.1522 12.5732 16.3135 12.8526C16.4748 13.1319 16.5823 13.4461 16.6181 13.7953H15.2564C15.2564 13.6731 15.2026 13.5334 15.113 13.3938ZM18.5352 16.8679C18.7323 17.0425 19.0011 17.1298 19.3594 17.1298C19.6103 17.1298 19.8432 17.0774 20.0224 16.9377C20.2015 16.8155 20.327 16.6759 20.3628 16.5362H21.4916C21.3124 17.0774 21.0257 17.4615 20.6674 17.6884C20.2911 17.9154 19.8432 18.0376 19.3236 18.0376C18.9653 18.0376 18.6248 17.9852 18.3381 17.863C18.0515 17.7408 17.8006 17.5837 17.5856 17.3916C17.3885 17.1821 17.2273 16.9377 17.1198 16.6409C17.0123 16.3616 16.9585 16.0299 16.9585 15.6982C16.9585 15.3665 17.0123 15.0523 17.1198 14.7729C17.2273 14.4936 17.3885 14.2317 17.6035 14.0222C17.8186 13.8127 18.0694 13.6382 18.3561 13.5334C18.6427 13.4112 18.9653 13.3588 19.3236 13.3588C19.7178 13.3588 20.0582 13.4287 20.3628 13.5858C20.6495 13.7429 20.9003 13.935 21.0795 14.1794C21.2587 14.4238 21.402 14.7031 21.4916 15.0348C21.5812 15.349 21.5991 15.6807 21.5812 16.0299H18.2306C18.2486 16.3965 18.3561 16.6759 18.5352 16.8679ZM19.9865 14.5111C19.8253 14.3539 19.5924 14.2667 19.2878 14.2667C19.0907 14.2667 18.9115 14.3016 18.7861 14.3714C18.6427 14.4412 18.5352 14.5285 18.4636 14.6158C18.374 14.7206 18.3202 14.8253 18.3023 14.9301C18.2665 15.0348 18.2486 15.1396 18.2486 15.2268H20.327C20.2374 14.8951 20.1299 14.6682 19.9865 14.5111ZM23.3729 14.2841V13.4461H22.1724V17.9328H23.4446V15.9252C23.4446 15.7157 23.4625 15.5411 23.4983 15.3665C23.5341 15.1919 23.6058 15.0348 23.7133 14.9126C23.8208 14.7729 23.9462 14.6856 24.1075 14.5984C24.2687 14.5285 24.4658 14.4761 24.6988 14.4761C24.7704 14.4761 24.8421 14.4761 24.9317 14.4936H24.9496C25.0392 14.4936 25.1109 14.5111 25.1646 14.5285V13.3938C25.0571 13.3588 24.9675 13.3588 24.8779 13.3588C24.7167 13.3588 24.5554 13.3763 24.4121 13.4287C24.2687 13.481 24.1254 13.5509 23.9821 13.6207C23.8567 13.708 23.7312 13.8127 23.6237 13.9175C23.5162 14.0397 23.4446 14.1619 23.3729 14.3016V14.2841ZM28.5689 13.4636V14.2841H27.6372V16.5013C27.6372 16.7108 27.673 16.8504 27.7447 16.9203C27.8164 16.9901 27.9597 17.025 28.1747 17.025C28.2464 17.025 28.318 17.025 28.3897 17.025C28.4614 17.025 28.5151 17.0076 28.5689 17.0076V17.9503C28.4614 17.9677 28.3359 17.9852 28.2105 17.9852C28.0851 17.9852 27.9418 18.0027 27.8164 18.0027C27.6193 18.0027 27.4222 17.9852 27.2609 17.9677C27.0817 17.9503 26.9205 17.8979 26.7951 17.8106C26.6517 17.7408 26.5621 17.636 26.4726 17.4964C26.4009 17.3567 26.3471 17.1821 26.3471 16.9552V14.2841H25.5767V13.4636H26.3471V12.1193H27.6193V13.4636H28.5689ZM29.3035 11.7527V12.7653H30.5756V11.7527H29.3035ZM30.5935 17.9328V13.4636H29.3214V17.9328H30.5935ZM31.0952 14.2841V13.4636H31.8656V13.1144C31.8656 12.7129 31.9911 12.3986 32.2598 12.1368C32.5107 11.8749 32.9048 11.7527 33.4244 11.7527C33.5319 11.7527 33.6574 11.7527 33.7649 11.7702C33.8007 11.7702 33.8545 11.7702 33.8903 11.7702C33.962 11.7702 34.0336 11.7876 34.1053 11.7876V12.7129C33.962 12.6954 33.8007 12.6954 33.6394 12.6954C33.4603 12.6954 33.3349 12.7304 33.2632 12.8176C33.1915 12.8875 33.1557 13.0271 33.1557 13.2192V13.481H34.0336V14.2841H33.1557V17.9328H31.8836V14.2841H31.0952ZM34.8757 11.7527V12.7653H36.1479V11.7527H34.8757ZM36.1479 17.9328V13.4636H34.8757V17.9328H36.1479ZM38.1725 16.8679C38.3696 17.0425 38.6383 17.1298 38.9967 17.1298C39.2475 17.1298 39.4805 17.0774 39.6596 16.9377C39.8388 16.8155 39.9642 16.6759 40.0001 16.5362H41.1288C40.9497 17.0774 40.663 17.4615 40.3046 17.6884C39.9284 17.9154 39.4805 18.0376 38.9609 18.0376C38.6025 18.0376 38.2621 17.9852 37.9754 17.863C37.6887 17.7408 37.4379 17.5837 37.2229 17.3916C37.0258 17.1821 36.8645 16.9377 36.757 16.6409C36.6495 16.3616 36.5958 16.0299 36.5958 15.6982C36.5958 15.3665 36.6495 15.0523 36.757 14.7729C36.8645 14.4936 37.0258 14.2317 37.2408 14.0222C37.4558 13.8127 37.7066 13.6382 37.9933 13.5334C38.28 13.4112 38.6025 13.3588 38.9609 13.3588C39.355 13.3588 39.6955 13.4287 40.0001 13.5858C40.2867 13.7429 40.5376 13.935 40.7167 14.1794C40.8959 14.4238 41.0392 14.7031 41.1288 15.0348C41.2184 15.349 41.2363 15.6807 41.2184 16.0299H37.8679C37.8679 16.3965 37.9754 16.6759 38.1725 16.8679ZM39.6059 14.5111C39.4625 14.3539 39.2117 14.2667 38.9071 14.2667C38.71 14.2667 38.5308 14.3016 38.4054 14.3714C38.2621 14.4412 38.1546 14.5285 38.0829 14.6158C37.9933 14.7206 37.9396 14.8253 37.9217 14.9301C37.8858 15.0348 37.8679 15.1396 37.8679 15.2268H39.9463C39.8746 14.8951 39.7671 14.6682 39.6059 14.5111ZM44.4973 17.8805C44.7481 17.7757 44.9273 17.6011 45.0885 17.3567H45.1065V17.9328H46.3069V11.7527H45.0348V14.0048H45.0169C44.8735 13.7778 44.6764 13.6207 44.4256 13.516C44.1748 13.3938 43.9239 13.3414 43.6372 13.3414C43.2968 13.3414 42.9922 13.4112 42.7414 13.5334C42.4905 13.6556 42.2755 13.8302 42.0964 14.0397C41.9351 14.2492 41.7918 14.4936 41.7022 14.7729C41.6126 15.0523 41.5768 15.349 41.5768 15.6458C41.5768 15.9601 41.6126 16.2569 41.7022 16.5536C41.7918 16.833 41.9172 17.0948 42.0964 17.3218C42.2576 17.5488 42.4905 17.7233 42.7414 17.8455C43.0101 17.9852 43.3147 18.0376 43.6552 18.0376C43.9777 18.0376 44.2464 17.9852 44.4973 17.8805ZM44.8377 14.7031C44.9273 14.8428 44.981 14.9824 45.0169 15.157C45.0527 15.3316 45.0706 15.5062 45.0706 15.6807C45.0706 15.8728 45.0527 16.0474 45.0169 16.2219C44.981 16.3965 44.9273 16.5536 44.8377 16.6759C44.7481 16.8155 44.6406 16.9203 44.4973 17.0076C44.3539 17.0948 44.1748 17.1298 43.9777 17.1298C43.7806 17.1298 43.6014 17.0948 43.476 17.0076C43.3327 16.9203 43.2252 16.8155 43.1176 16.6759C43.0281 16.5362 42.9564 16.3791 42.9206 16.2045C42.8847 16.0299 42.8668 15.8553 42.8668 15.6807C42.8668 15.4887 42.8847 15.3141 42.9206 15.157C42.9564 14.9824 43.0281 14.8253 43.0997 14.7031C43.1893 14.5634 43.2968 14.4587 43.4402 14.3889C43.5835 14.3016 43.7627 14.2667 43.9777 14.2667C44.1927 14.2667 44.3539 14.3016 44.4973 14.3889C44.6406 14.4587 44.766 14.5634 44.8377 14.7031ZM44.0135 38.0793C44.0135 46.2846 37.0975 52.9535 28.5689 52.9535C20.0403 52.9535 13.1242 46.302 13.1242 38.0793C13.1242 29.8741 20.0403 23.2051 28.5689 23.2051C37.0975 23.2051 44.0135 29.8566 44.0135 38.0793ZM28.5689 20.9356C18.7502 20.9356 10.7771 28.5996 10.7771 38.0619C10.7771 47.5241 18.7323 55.1881 28.5689 55.1881C38.3875 55.1881 46.3607 47.5241 46.3607 38.0619C46.3607 28.5996 38.3875 20.9356 28.5689 20.9356ZM21.1332 28.2854H28.4972C30.2889 28.2854 32.654 28.2854 33.8724 29.0012C35.2162 29.7693 36.2554 31.166 36.2554 33.0863C36.2554 35.1638 35.1266 36.7351 33.2453 37.4683V37.5207C35.7537 38.0095 37.1154 39.8251 37.1154 42.2343C37.1154 45.1149 34.9832 47.8558 30.9519 47.8558H21.1511V28.2854H21.1332ZM23.8208 36.7001H29.2318C32.2957 36.7001 33.5499 35.6352 33.5499 33.5752C33.5499 30.8692 31.561 30.4851 29.2318 30.4851H23.8208V36.7001ZM23.8208 45.6561H30.5935C32.9228 45.6561 34.4099 44.2944 34.4099 42.147C34.4099 39.5982 32.2777 38.8824 30.0022 38.8824H23.8208V45.6561ZM45.2498 56.3404H45.2677C45.2856 56.3404 45.2856 56.3404 45.3035 56.3404H45.3215C45.3573 56.3404 45.3931 56.3229 45.429 56.3229C45.4648 56.3054 45.4827 56.288 45.5006 56.2705C45.5186 56.2356 45.5186 56.2007 45.5186 56.1658C45.5186 56.1309 45.5186 56.0959 45.5006 56.0785C45.4827 56.061 45.4648 56.0436 45.4469 56.0261C45.429 56.0087 45.3931 56.0087 45.3573 55.9912C45.3215 55.9912 45.3035 55.9912 45.2498 55.9912H44.999V56.3753H45.196C45.214 56.3404 45.2319 56.3404 45.2498 56.3404ZM45.2856 55.7992C45.429 55.7992 45.5365 55.8341 45.6081 55.8864C45.6798 55.9388 45.7156 56.0261 45.7156 56.1483C45.7156 56.2531 45.6798 56.3404 45.6261 56.3927C45.5723 56.4451 45.4827 56.4626 45.3931 56.48L45.7515 57.0038H45.5365L45.196 56.4975H44.999V57.0038H44.8019V55.8166L45.2856 55.7992ZM44.4256 56.7419C44.4614 56.8466 44.5331 56.9514 44.6048 57.0212C44.6764 57.091 44.766 57.1609 44.8735 57.2133C44.981 57.2482 45.0885 57.2831 45.214 57.2831C45.3394 57.2831 45.4469 57.2656 45.5544 57.2133C45.6619 57.1609 45.7515 57.1085 45.8231 57.0212C45.8948 56.9514 45.9665 56.8466 46.0023 56.7419C46.0382 56.6371 46.074 56.5149 46.074 56.3927C46.074 56.2705 46.0561 56.1483 46.0023 56.0436C45.9665 55.9388 45.8948 55.8515 45.8231 55.7642C45.7336 55.6944 45.644 55.6246 45.5544 55.5897C45.4469 55.5547 45.3394 55.5198 45.214 55.5198C45.0885 55.5198 44.981 55.5373 44.8735 55.5897C44.766 55.642 44.6764 55.6944 44.6048 55.7642C44.5152 55.8341 44.4614 55.9388 44.4256 56.0436C44.3898 56.1483 44.3539 56.2531 44.3539 56.3927C44.3539 56.5149 44.3718 56.6371 44.4256 56.7419ZM44.2464 55.9912C44.3002 55.869 44.3719 55.7642 44.4794 55.677C44.5689 55.5897 44.6944 55.5198 44.8198 55.4675C44.9452 55.4151 45.0885 55.3976 45.2319 55.3976C45.3752 55.3976 45.5186 55.4151 45.644 55.4675C45.7694 55.5198 45.8769 55.5897 45.9844 55.677C46.074 55.7642 46.1636 55.869 46.2173 55.9912C46.2711 56.1134 46.3069 56.2531 46.3069 56.3927C46.3069 56.5324 46.289 56.6721 46.2173 56.7943C46.1636 56.9165 46.0919 57.0212 45.9844 57.126C45.8948 57.2133 45.7694 57.2831 45.644 57.3355C45.5186 57.3878 45.3752 57.4053 45.2319 57.4053C45.0885 57.4053 44.9452 57.3878 44.8198 57.3355C44.6944 57.2831 44.5689 57.2133 44.4794 57.126C44.3898 57.0387 44.3002 56.9339 44.2464 56.7943C44.1927 56.6721 44.1568 56.5324 44.1568 56.3927C44.1568 56.2531 44.1748 56.1134 44.2464 55.9912ZM46.3248 58.8019H10.8129V61.054H46.3069V58.8019H46.3248ZM12.9451 64.7027C13.4468 64.7027 13.8768 65.0344 13.9305 65.4709H14.898C14.7726 64.4583 13.9484 63.8997 12.9451 63.8997C11.5475 63.8997 10.7233 64.9122 10.7233 66.2041C10.7233 67.4611 11.5475 68.4736 12.9451 68.4736C14.0559 68.4736 14.8264 67.7753 14.9339 66.6929H13.9663C13.8947 67.269 13.5543 67.6706 12.9451 67.6706C12.0492 67.6706 11.7267 66.9373 11.7267 66.2216C11.7088 65.436 12.0492 64.7027 12.9451 64.7027ZM18.6965 66.7802C18.6965 65.7677 18.0336 65.1217 16.9944 65.1217C15.9731 65.1217 15.3101 65.7851 15.3101 66.7802C15.3101 67.7753 15.9731 68.4387 16.9944 68.4387C18.0336 68.4387 18.6965 67.7928 18.6965 66.7802ZM17.8006 66.7802C17.8006 67.269 17.6215 67.7928 17.0123 67.7928C16.4031 67.7928 16.2239 67.2865 16.2239 66.7802C16.2239 66.2739 16.4031 65.7677 17.0123 65.7677C17.6215 65.7677 17.8006 66.2739 17.8006 66.7802ZM19.2519 65.1915H20.112V65.7851H20.1299C20.2911 65.3836 20.7391 65.1217 21.1691 65.1217C21.2228 65.1217 21.3124 65.1392 21.3662 65.1566V65.9597C21.2766 65.9422 21.1511 65.9248 21.0436 65.9248C20.3807 65.9248 20.1478 66.3787 20.1478 66.9373V68.3514H19.2519V65.1915ZM22.5666 65.209H21.7066V69.4687H22.6024V67.9674H22.6204C22.8354 68.2816 23.2116 68.4387 23.6058 68.4387C24.5554 68.4387 25.0392 67.6531 25.0392 66.8151C25.0392 65.9248 24.5733 65.1217 23.5521 65.1217C23.14 65.1217 22.7995 65.2788 22.5845 65.6105H22.5666V65.209ZM23.3729 65.7677C23.9462 65.7677 24.1612 66.2914 24.1612 66.7802C24.1612 67.2865 23.9642 67.7753 23.3908 67.7753C22.8174 67.7753 22.6024 67.2865 22.6024 66.7802C22.5845 66.2739 22.7816 65.7677 23.3729 65.7677ZM27.028 65.1217C28.0672 65.1217 28.7301 65.7851 28.7301 66.7802C28.7301 67.7753 28.0672 68.4387 27.028 68.4387C26.0067 68.4387 25.3438 67.7753 25.3438 66.7802C25.3259 65.7677 25.9888 65.1217 27.028 65.1217ZM27.028 67.7928C27.6372 67.7928 27.8343 67.2865 27.8343 66.7802C27.8343 66.2739 27.6551 65.7677 27.028 65.7677C26.4188 65.7677 26.2396 66.2739 26.2396 66.7802C26.2217 67.2865 26.4188 67.7928 27.028 67.7928ZM30.1277 65.1915H29.2676V68.3514H30.1635V66.9373C30.1635 66.3787 30.3964 65.9248 31.0594 65.9248C31.1669 65.9248 31.3102 65.9422 31.3819 65.9597V65.1566C31.3281 65.1392 31.2565 65.1217 31.1848 65.1217C30.7548 65.1217 30.3068 65.401 30.1456 65.7851H30.1277V65.1915ZM31.6506 66.1692C31.7044 65.3487 32.4569 65.1217 33.1915 65.1217C33.8365 65.1217 34.6249 65.2614 34.6249 66.0121V67.6531C34.6249 67.9324 34.6607 68.2292 34.7324 68.3514H33.8186C33.7828 68.2467 33.7649 68.1419 33.7649 68.0547C33.4782 68.334 33.0661 68.4387 32.6719 68.4387C32.0448 68.4387 31.561 68.1419 31.561 67.496C31.561 66.7802 32.1165 66.6056 32.6719 66.5358C32.7615 66.5183 32.869 66.5184 32.9586 66.5009C33.3886 66.4485 33.747 66.4136 33.747 66.1168C33.747 65.7502 33.4782 65.6978 33.1736 65.6978C32.8332 65.6978 32.6182 65.8375 32.5823 66.1692H31.6506ZM33.729 66.8151C33.6215 66.9024 33.4065 66.9373 33.1915 66.9723C33.1198 66.9897 33.0482 66.9897 32.9765 67.0072C32.6898 67.0595 32.439 67.1468 32.439 67.4785C32.439 67.7928 32.6898 67.8801 32.9944 67.8801C33.6932 67.8801 33.729 67.3389 33.729 67.1643V66.8151ZM37.0975 65.209H36.4345V64.2663H35.5387V65.209H35.0012V65.7851H35.5387V67.6531C35.5387 68.2816 36.0224 68.4038 36.5779 68.4038C36.757 68.4038 36.9541 68.4038 37.0975 68.3689V67.688C37.0079 67.7055 36.9183 67.7055 36.8108 67.7055C36.5062 67.7055 36.4345 67.6357 36.4345 67.3389V65.7851H37.0975V65.209ZM38.6742 64.7202H37.7783V64.0044H38.6742V64.7202ZM37.7783 65.209H38.6742V68.3689H37.7783V65.209ZM42.6697 66.7802C42.6697 65.7677 42.0068 65.1217 40.9676 65.1217C39.9463 65.1217 39.2834 65.7851 39.2834 66.7802C39.2834 67.7753 39.9463 68.4387 40.9676 68.4387C42.0068 68.4387 42.6697 67.7928 42.6697 66.7802ZM41.7739 66.7802C41.7739 67.269 41.5947 67.7928 40.9676 67.7928C40.3584 67.7928 40.1792 67.2865 40.1792 66.7802C40.1792 66.2739 40.3584 65.7677 40.9676 65.7677C41.5768 65.7677 41.7739 66.2739 41.7739 66.7802ZM43.2431 65.209H44.1031V65.6455H44.121C44.3539 65.2963 44.7481 65.1217 45.1244 65.1217C46.074 65.1217 46.3248 65.6455 46.3248 66.4136V68.3514H45.429V66.5707C45.429 66.047 45.2677 65.8026 44.8556 65.8026C44.3719 65.8026 44.1568 66.0644 44.1568 66.7104V68.3689H43.261V65.209H43.2431Z" fill="white"/>
</g>
</g>
</svg>
