<svg width="112" height="31" viewBox="0 0 112 31" fill="none" xmlns="http://www.w3.org/2000/svg">
<g clip-path="url(#clip0_65_3125)">
<path d="M39.9557 23.2263C36.5918 23.1873 34.9984 22.7934 34.0246 22.1052C33.0509 21.417 32.5596 20.2916 32.5596 18.7334C32.5901 17.513 32.7219 16.2971 32.9535 15.0975L33.8786 10.4618C34.1208 9.08444 34.551 7.7451 35.1577 6.47969C35.625 5.52198 36.3238 4.69003 37.1938 4.05579C38.0528 3.45379 39.0339 3.03903 40.0708 2.83951C41.4136 2.59595 42.7772 2.47855 44.1429 2.48891C45.5592 2.48891 46.6658 2.53219 47.4625 2.57548C48.1887 2.61644 48.9046 2.7623 49.5871 3.00832C50.1937 3.20806 50.7 3.62583 51.0035 4.17698C51.3965 4.84655 51.5811 5.61377 51.5346 6.38447C51.5359 7.05179 51.4781 7.71796 51.362 8.37554L51.1407 9.50092H47.1571L47.3784 8.37554C47.4583 8.03452 47.5028 7.68648 47.5112 7.33672C47.5347 7.07038 47.4633 6.80429 47.3093 6.58345C47.1552 6.36261 46.9279 6.20058 46.6658 6.12476C45.619 5.90657 44.5482 5.81931 43.4789 5.86506C42.634 5.84108 41.7888 5.90054 40.956 6.04253C40.4206 6.13396 39.9179 6.35742 39.4954 6.69179C39.0698 7.05006 38.7504 7.51344 38.5703 8.03359C38.2702 8.83858 38.0334 9.66482 37.8621 10.5051L36.9769 15.0066C36.7915 15.8767 36.6746 16.7594 36.6272 17.647C36.6272 18.5126 36.9371 19.0753 37.5125 19.3783C38.0879 19.6813 39.1501 19.8112 40.6993 19.8112C41.6731 19.8112 42.1599 19.7679 42.6911 19.7246C43.1769 19.6965 43.6551 19.5928 44.1075 19.4173C44.5158 19.2555 44.8581 18.9664 45.0812 18.5949C45.4024 18.079 45.6132 17.5047 45.7009 16.9068L45.9178 15.7814H49.9013L49.6402 17.1232C49.4476 18.2887 49.0587 19.415 48.4894 20.4561C48.0505 21.2159 47.4097 21.8456 46.6348 22.2784C45.8858 22.6525 45.0778 22.9013 44.2447 23.0142C43.0131 23.1799 41.7689 23.2393 40.5267 23.1916" fill="#144356"/>
<path d="M70.6285 23.1057H67.1318L69.7875 9.85651C69.855 9.55777 70.022 9.28941 70.2624 9.09355C70.5027 8.89769 70.8027 8.78544 71.1154 8.77441H73.5055L70.6285 23.1057Z" fill="#144356"/>
<path d="M87.6212 18.4217C87.457 19.3436 87.1113 20.2256 86.6032 21.0187C86.1966 21.6269 85.6333 22.1196 84.97 22.4471C84.2838 22.7506 83.5509 22.9407 82.8011 23.0098C81.7865 23.1102 80.7669 23.155 79.7471 23.144C77.6668 23.144 76.2061 22.8886 75.3652 22.3259C74.5242 21.7632 74.0771 20.8109 74.0771 19.4259C74.1286 18.231 74.2901 17.0431 74.5596 15.8766C74.7936 14.7139 75.1191 13.5707 75.5334 12.4571C75.8375 11.6312 76.319 10.8785 76.9453 10.2497C77.6005 9.64994 78.388 9.20564 79.2469 8.95113C80.4272 8.62732 81.6511 8.48137 82.8764 8.51829C85.0452 8.51829 86.5501 8.77799 87.3911 9.2974C88.2321 9.81248 88.6304 10.7647 88.6348 12.1065C88.5613 13.5816 88.3389 15.0459 87.9709 16.4782H77.8792C77.6782 17.2753 77.5464 18.0876 77.4853 18.9065C77.4523 19.1467 77.4886 19.3912 77.5903 19.6123C77.692 19.8333 77.855 20.0222 78.0607 20.1574C78.4591 20.4171 79.1672 20.5469 80.2295 20.5469C81.129 20.5836 82.028 20.4649 82.8852 20.1963C83.4164 19.9799 83.8147 19.3739 84.036 18.4217H87.6212ZM85.0054 14.0933C85.1442 13.5686 85.2331 13.0325 85.2709 12.4918C85.3026 12.2688 85.2641 12.0417 85.1605 11.8406C85.057 11.6396 84.8932 11.4742 84.6911 11.3664C83.9461 11.1456 83.1662 11.0591 82.3895 11.111C81.7671 11.0977 81.1447 11.1412 80.5305 11.2409C80.1413 11.3103 79.7761 11.474 79.4682 11.717C79.1934 11.9706 78.9828 12.2833 78.853 12.6303C78.6566 13.1055 78.5083 13.5984 78.4104 14.1019L85.0054 14.0933Z" fill="#144356"/>
<path d="M100.585 12.7862C100.629 12.5265 100.806 12.0504 100.802 11.8772C100.802 11.5742 100.669 11.4011 100.315 11.2713C99.6627 11.1193 98.9937 11.0466 98.3232 11.0548C97.459 11.0238 96.5947 11.1127 95.756 11.3189C95.4569 11.3889 95.1869 11.5467 94.982 11.771C94.7771 11.9954 94.6472 12.2756 94.6097 12.5741C94.5641 12.7881 94.5345 13.0051 94.5211 13.2234C94.5019 13.3948 94.551 13.5669 94.6581 13.704C94.7653 13.841 94.9223 13.9324 95.0965 13.9592C95.9553 14.14 96.8297 14.24 97.708 14.2578L98.4604 14.3011C99.3457 14.3444 100.054 14.431 100.585 14.4743C101.088 14.5376 101.579 14.6687 102.046 14.8638C102.477 15.0664 102.844 15.3789 103.108 15.7685C103.379 16.2588 103.503 16.8138 103.466 17.37C103.454 17.9133 103.365 18.4523 103.201 18.9715C103.023 19.7993 102.643 20.5729 102.094 21.2266C101.608 21.7803 101.004 22.2235 100.324 22.5251C99.6049 22.8236 98.8438 23.0133 98.0665 23.0878C97.1099 23.1687 96.1495 23.199 95.1895 23.1787C94.0829 23.1787 93.1977 23.1354 92.578 23.0921C91.9899 23.0515 91.4097 22.9366 90.8518 22.7502C90.38 22.573 89.9774 22.255 89.701 21.8412C89.406 21.3282 89.2808 20.7385 89.3425 20.1531C89.3921 19.5788 89.5109 19.0121 89.6966 18.465H93.2375C93.1387 18.8058 93.0647 19.1529 93.0162 19.5039C93.0086 19.6721 93.056 19.8383 93.1515 19.9784C93.247 20.1185 93.3857 20.2252 93.5474 20.283C94.2616 20.5057 95.0126 20.5939 95.7605 20.5427C96.6838 20.6041 97.6113 20.5149 98.5047 20.2787C98.7968 20.1883 99.0562 20.018 99.2524 19.7878C99.4485 19.5577 99.573 19.2774 99.6112 18.9801C99.685 18.7261 99.7295 18.4647 99.744 18.201C99.7384 18.0021 99.6722 17.8093 99.554 17.6474C99.4357 17.4855 99.2707 17.3618 99.0801 17.2921C98.2172 17.0493 97.3221 16.934 96.4244 16.9501C94.2113 16.8635 92.702 16.6471 91.9053 16.3052C91.1086 15.9632 90.7102 15.2664 90.7545 14.2708C90.7937 13.6102 90.9126 12.9564 91.1085 12.323C91.2871 11.5057 91.6483 10.7371 92.1664 10.0723C92.601 9.53218 93.1846 9.12513 93.8484 8.89929C94.5339 8.66401 95.2483 8.51847 95.9729 8.46645C96.9305 8.40351 97.8907 8.38762 98.8499 8.41883C99.7352 8.41883 100.443 8.46212 101.019 8.5054C101.596 8.54823 102.164 8.67818 102.701 8.89063C103.206 9.05007 103.642 9.36999 103.94 9.79959C104.268 10.2855 104.424 10.8635 104.383 11.4444C104.319 11.9133 104.217 12.3765 104.077 12.8295L100.585 12.7862Z" fill="#144356"/>
<path d="M107.941 23.0794H104.444L107.1 9.87782C107.164 9.55742 107.341 9.26906 107.6 9.06271C107.858 8.85637 108.183 8.74507 108.516 8.74811H110.862L107.941 23.0794Z" fill="#144356"/>
<path d="M61.0237 23.105H64.4761L66.282 13.799C66.4117 13.0842 66.4843 12.3606 66.4989 11.6348C66.4933 11.2016 66.377 10.7766 66.1605 10.3986C65.944 10.0206 65.6343 9.7016 65.2595 9.47057C64.5956 8.99445 63.135 8.69146 61.6743 8.69579C60.435 8.69579 58.8416 8.56594 57.3367 9.47923L58.7486 2.46289H56.6241C56.2332 2.4622 55.8547 2.59641 55.5551 2.84186C55.2555 3.08732 55.0541 3.42829 54.9864 3.8047L51.1533 23.157H54.65L56.7215 12.7688C57.2482 10.7778 61.0547 11.2928 61.6743 11.3361C61.8807 11.3323 62.0854 11.3729 62.274 11.4548C62.4626 11.5368 62.6305 11.6581 62.766 11.8104C62.9014 11.9627 63.0011 12.1421 63.058 12.3361C63.1148 12.5301 63.1275 12.734 63.0951 12.9333" fill="#144356"/>
<path d="M29.8991 12.7602L23.8263 2.46289L21.2149 6.92547L23.3439 10.518H17.7227C18.0794 10.8089 18.3674 11.172 18.5668 11.5823C18.7663 11.9925 18.8724 12.4401 18.8779 12.8943C18.8693 13.3426 18.7621 13.7838 18.5635 14.1878C18.3649 14.5919 18.0796 14.9494 17.7271 15.236H23.2598L21.1839 18.7853L23.7998 23.2392L29.8548 12.9333C29.89 12.8825 29.9057 12.8212 29.8991 12.7602Z" fill="#144356"/>
<path d="M19.7235 21.2526H9.8089L4.84714 12.8685L9.80447 4.46704H19.7191L22.3261 0.00878906H8.60498C8.17337 0.0138434 7.75054 0.128636 7.37804 0.341886C7.00554 0.555136 6.69619 0.859502 6.4804 1.22507L0.336868 11.6132C0.120612 11.9821 0.00683594 12.4 0.00683594 12.8252C0.00683594 13.2504 0.120612 13.6682 0.336868 14.0371L6.49811 24.4642C6.71048 24.8196 7.01422 25.1144 7.37916 25.3194C7.7441 25.5244 8.15755 25.6325 8.57842 25.6329H22.2996L19.7235 21.2526Z" fill="#144356"/>
<path d="M17.0191 12.9025C17.0191 13.4765 16.786 14.0269 16.3709 14.4328C15.9559 14.8387 15.393 15.0667 14.806 15.0667C14.5144 15.0702 14.225 15.0166 13.9549 14.909C13.6848 14.8015 13.4394 14.6422 13.2332 14.4406C13.027 14.2389 12.8641 13.9989 12.7542 13.7348C12.6442 13.4706 12.5894 13.1877 12.5929 12.9025C12.5929 12.3285 12.8261 11.778 13.2411 11.3722C13.6562 10.9663 14.2191 10.7383 14.806 10.7383C15.393 10.7383 15.9559 10.9663 16.3709 11.3722C16.786 11.778 17.0191 12.3285 17.0191 12.9025Z" fill="#144356"/>
<path d="M74.5943 4.32411C74.5892 4.82863 74.3909 5.31297 74.0385 5.68156C73.6862 6.05015 73.2054 6.27622 72.691 6.31517C72.4474 6.35088 72.1988 6.33544 71.9617 6.26988C71.7246 6.20432 71.5046 6.09014 71.3162 5.93495C71.1277 5.77976 70.9752 5.58711 70.8689 5.36981C70.7625 5.15252 70.7047 4.91556 70.6992 4.67471C70.7043 4.17018 70.9026 3.68585 71.2549 3.31726C71.6073 2.94867 72.0881 2.7226 72.6025 2.68364C72.8472 2.64034 73.0987 2.65037 73.339 2.713C73.5793 2.77564 73.8025 2.88934 73.9927 3.04601C74.1829 3.20267 74.3355 3.39844 74.4394 3.61936C74.5434 3.84028 74.5963 4.08092 74.5943 4.32411Z" fill="#144356"/>
<path d="M111.996 4.25036C111.991 4.75489 111.792 5.23923 111.44 5.60781C111.088 5.9764 110.607 6.20247 110.092 6.24143C109.848 6.27645 109.6 6.26038 109.363 6.19429C109.126 6.1282 108.906 6.0136 108.717 5.85808C108.529 5.70255 108.377 5.50966 108.27 5.29219C108.164 5.07472 108.106 4.83763 108.101 4.59663C108.106 4.09211 108.304 3.60777 108.656 3.23918C109.009 2.8706 109.489 2.64452 110.004 2.60557C110.247 2.5754 110.494 2.59491 110.729 2.66287C110.964 2.73082 111.182 2.84574 111.369 3.00035C111.556 3.15495 111.709 3.34588 111.816 3.56105C111.924 3.77622 111.985 4.01094 111.996 4.25036Z" fill="#144356"/>
<path d="M57.5089 27.2123L56.9423 30.0301H56.1279L56.6945 27.2339L57.5089 27.2123ZM57.6107 26.0739C57.6445 26.1084 57.6709 26.1491 57.6883 26.1937C57.7058 26.2383 57.714 26.2859 57.7125 26.3336C57.7146 26.4038 57.7015 26.4737 57.674 26.5386C57.6466 26.6035 57.6054 26.6619 57.5532 26.7102C57.5039 26.7601 57.4447 26.7996 57.3792 26.8264C57.3138 26.8532 57.2435 26.8667 57.1725 26.866C57.1232 26.8682 57.074 26.8601 57.0282 26.8422C56.9824 26.8243 56.941 26.797 56.9069 26.7621C56.873 26.7268 56.8466 26.6853 56.8291 26.64C56.8117 26.5947 56.8035 26.5465 56.8051 26.4981C56.8038 26.4284 56.8168 26.3591 56.8434 26.2944C56.87 26.2297 56.9097 26.1709 56.96 26.1215C57.0099 26.0726 57.0693 26.034 57.1346 26.008C57.2 25.9819 57.2701 25.969 57.3407 25.97C57.39 25.968 57.4391 25.9763 57.4848 25.9942C57.5306 26.0121 57.572 26.0393 57.6063 26.0739H57.6107Z" fill="#144356"/>
<path d="M60.7053 27.4336C60.7966 27.5185 60.8683 27.6215 60.9156 27.7357C60.9629 27.8499 60.9848 27.9727 60.9797 28.0958C60.9777 28.1891 60.9659 28.282 60.9443 28.3729L60.6079 30.0177H59.7979L60.1033 28.4854C60.1077 28.435 60.1077 28.3843 60.1033 28.3339C60.1067 28.2733 60.097 28.2128 60.0749 28.1561C60.0528 28.0994 60.0187 28.0479 59.9749 28.0049C59.8741 27.921 59.7443 27.8777 59.612 27.8837C59.4321 27.8842 59.2593 27.9524 59.1295 28.0742C58.9875 28.2083 58.8916 28.3822 58.8551 28.572L58.563 30.022H57.7441L58.3018 27.2258H59.1251L59.0454 27.6111C59.149 27.4772 59.2827 27.3684 59.4363 27.2934C59.5898 27.2183 59.759 27.1789 59.9307 27.1782C60.0708 27.1669 60.2117 27.1837 60.3449 27.2277C60.4781 27.2716 60.6008 27.3417 60.7053 27.4336Z" fill="#144356"/>
<path d="M66.0433 26.3637L65.9061 27.0606H64.7685L64.1621 29.9996H63.3212L63.9231 27.0562H62.79L62.9317 26.3594L66.0433 26.3637Z" fill="#144356"/>
<path d="M67.344 27.3037C67.5207 27.22 67.7142 27.1756 67.9105 27.1738L67.8176 27.9226H67.7114C67.4739 27.9175 67.2416 27.9907 67.0518 28.1304C66.8733 28.2623 66.7467 28.4503 66.6933 28.6628L66.4233 30.0046H65.6045L66.171 27.2085H66.9899L66.8925 27.6759C67.0118 27.5196 67.1663 27.3923 67.344 27.3037Z" fill="#144356"/>
<path d="M68.4197 29.875C68.2484 29.7698 68.1104 29.6199 68.0213 29.4422C67.9208 29.2417 67.8708 29.0206 67.8753 28.7973C67.8712 28.5113 67.9396 28.2287 68.0745 27.9749C68.2 27.7351 68.3897 27.5332 68.6233 27.3905C68.8554 27.2488 69.1243 27.1752 69.3979 27.1785C69.5986 27.1713 69.7975 27.2177 69.9733 27.3126C70.1315 27.4072 70.2554 27.548 70.3274 27.7152L70.4292 27.2088H71.2436L70.6771 30.0049H69.8626L69.9423 29.6543C69.8225 29.7772 69.6782 29.8748 69.5184 29.9411C69.3585 30.0073 69.1864 30.0408 69.0128 30.0395C68.8032 30.0405 68.5976 29.9835 68.4197 29.875ZM69.7476 29.2821C69.8754 29.2004 69.9804 29.0888 70.053 28.9574C70.1227 28.8231 70.1605 28.6752 70.1636 28.5246C70.1682 28.4387 70.1554 28.3527 70.1257 28.2717C70.0961 28.1908 70.0503 28.1163 69.991 28.0528C69.934 27.9946 69.8652 27.9487 69.789 27.9181C69.7127 27.8875 69.6307 27.873 69.5484 27.8753C69.4018 27.8742 69.2583 27.9164 69.1367 27.9965C69.0069 28.0759 68.9014 28.188 68.8313 28.3212C68.7604 28.455 68.7225 28.6032 68.7207 28.754C68.7156 28.8413 68.7283 28.9286 68.7579 29.0111C68.7875 29.0936 68.8335 29.1695 68.8933 29.2344C68.9505 29.2921 69.0195 29.3373 69.0957 29.3672C69.172 29.397 69.2538 29.4108 69.3359 29.4076C69.4781 29.4032 69.6162 29.3597 69.7343 29.2821H69.7476Z" fill="#144356"/>
<path d="M74.4258 27.407C74.5163 27.4923 74.5872 27.5955 74.6338 27.7096C74.6803 27.8238 74.7015 27.9464 74.6958 28.0692C74.6957 28.1624 74.6853 28.2552 74.6648 28.3462L74.3285 29.991H73.5406L73.846 28.4588C73.852 28.4084 73.852 28.3576 73.846 28.3073C73.8488 28.2464 73.8384 28.1856 73.8155 28.1289C73.7927 28.0722 73.7578 28.0209 73.7132 27.9783C73.6643 27.9348 73.607 27.9012 73.5447 27.8797C73.4824 27.8581 73.4163 27.849 73.3503 27.8528C73.1704 27.8532 72.9976 27.9214 72.8678 28.0432C72.7264 28.1772 72.6319 28.3514 72.5978 28.541L72.3013 29.991H71.4824L72.0445 27.1949H72.8678L72.7881 27.5801C72.8939 27.4433 73.0312 27.3327 73.1889 27.2575C73.3465 27.1823 73.5201 27.1446 73.6955 27.1473C73.9643 27.1369 74.2266 27.2302 74.4258 27.407Z" fill="#144356"/>
<path d="M75.4487 29.8835C75.2182 29.7994 75.0095 29.6663 74.8379 29.4939L75.1831 29.0005C75.3231 29.1314 75.4847 29.2383 75.6612 29.3165C75.8223 29.3901 75.9969 29.4313 76.1746 29.4377C76.2696 29.4408 76.3634 29.4168 76.4446 29.3684C76.4764 29.3495 76.5025 29.3227 76.5203 29.2908C76.5382 29.2589 76.5472 29.223 76.5464 29.1866C76.5443 29.1504 76.5326 29.1154 76.5124 29.0851C76.4922 29.0547 76.4643 29.03 76.4313 29.0135C76.3233 28.9534 76.2109 28.9013 76.0949 28.8577C75.9542 28.805 75.8168 28.7443 75.6833 28.6759C75.573 28.6184 75.4776 28.5369 75.4044 28.4378C75.3225 28.3273 75.2804 28.1933 75.2849 28.0569C75.2815 27.8925 75.3294 27.7309 75.4221 27.5938C75.5187 27.4544 75.6538 27.3449 75.8117 27.2778C75.9914 27.2002 76.1862 27.1618 76.3826 27.1652C76.6135 27.1665 76.8425 27.2061 77.0598 27.2821C77.2727 27.3537 77.4706 27.4622 77.6441 27.6024L77.2723 28.1002C77.1355 27.9983 76.987 27.9126 76.8297 27.8448C76.6979 27.7898 76.5568 27.759 76.4136 27.7539C76.3304 27.751 76.2484 27.7738 76.179 27.8188C76.1505 27.8376 76.1268 27.8627 76.1099 27.892C76.093 27.9213 76.0833 27.954 76.0817 27.9876C76.0839 28.0227 76.0958 28.0564 76.116 28.0854C76.1363 28.1143 76.1642 28.1374 76.1967 28.1521C76.3028 28.2157 76.4156 28.268 76.5331 28.3079C76.7057 28.3772 76.843 28.4421 76.9536 28.4984C77.0661 28.56 77.1641 28.6441 77.2413 28.7451C77.3261 28.8577 77.3698 28.9949 77.3652 29.1347C77.3665 29.2994 77.3172 29.4608 77.2236 29.5978C77.1206 29.7364 76.9815 29.8455 76.8208 29.9138C76.6249 29.9995 76.4112 30.0395 76.1967 30.0306C75.9402 30.0271 75.6866 29.9772 75.4487 29.8835Z" fill="#144356"/>
<path d="M80.5876 27.3168C80.7603 27.4218 80.8997 27.5717 80.9904 27.7497C81.0873 27.9512 81.1358 28.1719 81.132 28.3946C81.1361 28.6806 81.0677 28.9632 80.9328 29.217C80.8047 29.4549 80.6156 29.6563 80.384 29.8013C80.1514 29.9424 79.8831 30.0173 79.6094 30.0177C79.4084 30.0229 79.2096 29.9751 79.034 29.8792C78.8765 29.7858 78.7527 29.6466 78.6799 29.481L78.3701 30.9916H77.5557L78.3258 27.187H79.1402L79.065 27.5462C79.191 27.4213 79.3415 27.3227 79.5076 27.2562C79.6672 27.1897 79.8387 27.1544 80.0122 27.1523C80.2158 27.1541 80.415 27.2111 80.5876 27.3168ZM79.2597 27.9185C79.1324 27.9975 79.0286 28.108 78.9588 28.2388C78.886 28.372 78.848 28.5206 78.8481 28.6716C78.8402 28.8455 78.9003 29.0157 79.0163 29.1477C79.0731 29.2062 79.1419 29.2522 79.2182 29.2828C79.2945 29.3134 79.3765 29.3278 79.4589 29.3252C79.6062 29.3259 79.7506 29.2854 79.875 29.2083C80.0021 29.1272 80.1058 29.0154 80.176 28.8837C80.2475 28.7501 80.2855 28.6017 80.2866 28.4509C80.2952 28.2782 80.2349 28.1091 80.1184 27.9791C80.0616 27.9206 79.9928 27.8746 79.9165 27.844C79.8402 27.8134 79.7582 27.799 79.6758 27.8016C79.5402 27.8046 79.4082 27.8451 79.2951 27.9185H79.2597Z" fill="#144356"/>
<path d="M83.0212 26.1348L82.2378 29.9914H81.4189L82.2024 26.1348H83.0212Z" fill="#144356"/>
<path d="M83.6365 29.8618C83.4641 29.7578 83.3258 29.6076 83.2381 29.429C83.1376 29.2284 83.0876 29.0073 83.0921 28.784C83.088 28.498 83.1564 28.2155 83.2913 27.9616C83.4168 27.7219 83.6065 27.5199 83.8401 27.3773C84.0722 27.2356 84.3411 27.162 84.6147 27.1652C84.8156 27.156 85.0151 27.2025 85.1901 27.2994C85.3483 27.394 85.4722 27.5348 85.5442 27.7019L85.646 27.1955H86.4604L85.8939 29.9917H85.0794L85.1591 29.6411C85.0387 29.7632 84.8943 29.8602 84.7346 29.9264C84.5748 29.9926 84.4031 30.0266 84.2296 30.0263C84.02 30.0273 83.8144 29.9702 83.6365 29.8618ZM84.9644 29.2688C85.0915 29.1876 85.1951 29.0758 85.2653 28.9442C85.3383 28.8109 85.3777 28.6625 85.3804 28.5113C85.385 28.4254 85.3722 28.3395 85.3425 28.2585C85.3129 28.1775 85.2671 28.1031 85.2078 28.0395C85.1515 27.9804 85.0828 27.9339 85.0064 27.9033C84.93 27.8727 84.8477 27.8586 84.7652 27.8621C84.6186 27.8609 84.4751 27.9032 84.3535 27.9833C84.2237 28.0626 84.1182 28.1748 84.0481 28.3079C83.9747 28.4408 83.9366 28.5897 83.9375 28.7407C83.9282 28.9169 83.9902 29.0895 84.1101 29.2212C84.1673 29.2789 84.2363 29.3241 84.3125 29.3539C84.3888 29.3838 84.4706 29.3975 84.5527 29.3943C84.6948 29.3895 84.8328 29.346 84.9511 29.2688H84.9644Z" fill="#144356"/>
<path d="M89.6477 27.3949C89.7382 27.4802 89.8091 27.5834 89.8557 27.6976C89.9022 27.8117 89.9234 27.9343 89.9177 28.0571C89.9176 28.1503 89.9072 28.2432 89.8867 28.3341L89.5459 29.9789H88.7359L89.0413 28.4467C89.0454 28.3977 89.0454 28.3485 89.0413 28.2995C89.0448 28.2379 89.0347 28.1763 89.0118 28.1188C88.9889 28.0613 88.9537 28.0093 88.9085 27.9662C88.8081 27.8815 88.678 27.8381 88.5456 27.845C88.3657 27.8455 88.1929 27.9137 88.0631 28.0355C87.921 28.1689 87.8264 28.3433 87.7931 28.5332L87.4966 29.9833H86.6777L87.2399 27.1871H88.0631L87.9835 27.5723C88.0897 27.436 88.2271 27.3259 88.3847 27.2507C88.5422 27.1756 88.7155 27.1375 88.8908 27.1395C89.1677 27.1234 89.4399 27.2152 89.6477 27.3949Z" fill="#144356"/>
<path d="M91.3785 29.0481C91.375 29.0914 91.375 29.1348 91.3785 29.178C91.3762 29.2005 91.3786 29.2231 91.3854 29.2447C91.3923 29.2663 91.4035 29.2863 91.4183 29.3035C91.4553 29.3302 91.501 29.3425 91.5467 29.3381C91.7006 29.3311 91.8514 29.2927 91.9893 29.2256L92.0911 29.8316C91.9732 29.8909 91.8484 29.936 91.7193 29.9658C91.5937 29.9981 91.4642 30.0141 91.3343 30.0134C91.1277 30.0223 90.9248 29.9577 90.7633 29.8316C90.6916 29.7686 90.635 29.691 90.5975 29.6042C90.56 29.5174 90.5426 29.4236 90.5464 29.3295C90.5467 29.2583 90.5541 29.1872 90.5685 29.1174L90.8031 27.8665H90.4092L90.5154 27.3081H90.9138L91.0731 26.542H91.8787L91.7193 27.3124H92.5028L92.3965 27.8665H91.6087L91.3785 29.0481Z" fill="#144356"/>
<path d="M93.0999 29.8527C92.9272 29.7477 92.7878 29.5978 92.6971 29.4198C92.5966 29.2193 92.5465 28.9982 92.5511 28.7749C92.547 28.4889 92.6154 28.2063 92.7502 27.9525C92.8758 27.7128 93.0655 27.5108 93.2991 27.3682C93.5312 27.2264 93.8 27.1528 94.0737 27.1561C94.2744 27.1485 94.4734 27.1949 94.6491 27.2903C94.8078 27.3855 94.9329 27.526 95.0076 27.6928L95.105 27.1864H95.9194L95.3528 29.9825H94.5384L94.6181 29.6319C94.4983 29.7548 94.354 29.8525 94.1942 29.9187C94.0343 29.985 93.8622 30.0185 93.6886 30.0171C93.4803 30.0188 93.2759 29.9617 93.0999 29.8527ZM94.4278 29.2597C94.5556 29.1781 94.6606 29.0665 94.7332 28.9351C94.8029 28.8008 94.8408 28.6528 94.8438 28.5022C94.8485 28.4163 94.8356 28.3304 94.8059 28.2494C94.7763 28.1684 94.7305 28.094 94.6712 28.0304C94.6149 27.9713 94.5462 27.9248 94.4698 27.8942C94.3934 27.8635 94.3111 27.8495 94.2286 27.853C94.0821 27.8523 93.9387 27.8945 93.817 27.9741C93.6871 28.0535 93.5816 28.1656 93.5115 28.2988C93.4406 28.4326 93.4027 28.5809 93.4009 28.7316C93.3958 28.8189 93.4085 28.9063 93.4381 28.9887C93.4677 29.0712 93.5137 29.1471 93.5735 29.2121C93.6307 29.2697 93.6997 29.315 93.7759 29.3448C93.8522 29.3746 93.934 29.3884 94.0161 29.3852C94.1568 29.38 94.2932 29.3365 94.4101 29.2597H94.4278Z" fill="#144356"/>
<path d="M97.2699 29.0431C97.2667 29.0863 97.2667 29.1297 97.2699 29.173C97.2682 29.1957 97.2712 29.2186 97.2788 29.2402C97.2865 29.2617 97.2985 29.2816 97.3141 29.2985C97.3517 29.3238 97.3969 29.336 97.4425 29.3331C97.5966 29.3271 97.7475 29.2887 97.8851 29.2206L97.9869 29.8266C97.8696 29.8872 97.7446 29.9323 97.6151 29.9607C97.491 29.9933 97.363 30.0093 97.2345 30.0084C97.0277 30.0189 96.8242 29.9542 96.6635 29.8266C96.5913 29.764 96.5344 29.6864 96.4968 29.5996C96.4593 29.5127 96.4421 29.4187 96.4466 29.3245C96.4467 29.2532 96.4541 29.1822 96.4687 29.1124L96.7254 27.8571H96.3359L96.4422 27.2988H96.8405L96.9954 26.5283H97.8054L97.6461 27.2988H98.4251L98.3233 27.8528H97.5354L97.2699 29.0431Z" fill="#144356"/>
<path d="M99.8052 27.1781L99.2387 29.9699H98.4287L98.9953 27.1737L99.8052 27.1781ZM99.9115 26.0354C99.9454 26.0707 99.9718 26.1121 99.9893 26.1575C100.007 26.2028 100.015 26.251 100.013 26.2994C100.014 26.3695 100.001 26.439 99.9733 26.5037C99.9459 26.5685 99.9053 26.6271 99.8539 26.676C99.8031 26.7248 99.743 26.7633 99.6769 26.7893C99.6108 26.8153 99.5401 26.8283 99.4689 26.8275C99.4197 26.8289 99.3707 26.8204 99.325 26.8025C99.2793 26.7847 99.2379 26.7578 99.2033 26.7236C99.1364 26.6516 99.1014 26.5567 99.1059 26.4595C99.1036 26.3903 99.1162 26.3214 99.1429 26.2573C99.1696 26.1932 99.2097 26.1352 99.2608 26.0873C99.3105 26.0382 99.3699 25.9994 99.4353 25.9734C99.5007 25.9474 99.5709 25.9346 99.6415 25.9358C99.691 25.934 99.7404 25.9418 99.7868 25.9589C99.8331 25.976 99.8755 26.002 99.9115 26.0354Z" fill="#144356"/>
<path d="M102.501 27.308C102.702 27.4047 102.871 27.5547 102.988 27.7408C103.107 27.9451 103.166 28.1769 103.161 28.4117C103.165 28.6985 103.09 28.9811 102.944 29.2298C102.801 29.4664 102.592 29.6585 102.342 29.7838C102.069 29.9232 101.764 29.9918 101.457 29.9829C101.201 29.9884 100.947 29.9335 100.717 29.8228C100.517 29.7261 100.348 29.5761 100.231 29.3899C100.112 29.1839 100.053 28.9508 100.058 28.7147C100.054 28.4293 100.129 28.1482 100.275 27.901C100.418 27.6644 100.627 27.4723 100.877 27.3469C101.151 27.2102 101.455 27.1418 101.762 27.1478C102.018 27.143 102.271 27.1979 102.501 27.308ZM101.288 27.9226C101.168 27.9972 101.07 28.1018 101.005 28.2256C100.936 28.3598 100.901 28.5083 100.903 28.6584C100.892 28.8419 100.952 29.0227 101.072 29.1649C101.13 29.2272 101.202 29.2762 101.283 29.3084C101.363 29.3406 101.45 29.3551 101.536 29.351C101.68 29.3539 101.821 29.3163 101.943 29.2428C102.065 29.1696 102.163 29.0646 102.227 28.9398C102.296 28.8055 102.33 28.6571 102.329 28.5069C102.337 28.327 102.275 28.1506 102.156 28.0135C102.1 27.9535 102.031 27.9059 101.955 27.8738C101.879 27.8417 101.796 27.8259 101.713 27.8274C101.565 27.8172 101.417 27.8503 101.288 27.9226Z" fill="#144356"/>
<path d="M106.383 27.3817C106.474 27.467 106.544 27.5702 106.591 27.6844C106.638 27.7986 106.659 27.9211 106.653 28.0439C106.653 28.1357 106.642 28.2271 106.622 28.3166L106.286 29.9657H105.471L105.777 28.4335C105.783 28.3832 105.783 28.3323 105.777 28.282C105.779 28.2211 105.769 28.1603 105.746 28.1037C105.723 28.047 105.688 27.9956 105.644 27.953C105.595 27.9103 105.537 27.8775 105.475 27.8567C105.413 27.8359 105.347 27.8275 105.281 27.8318C105.102 27.8316 104.931 27.9 104.803 28.0223C104.658 28.1524 104.561 28.326 104.528 28.5157L104.232 29.9657H103.413L103.975 27.1739H104.798L104.719 27.5548C104.823 27.4214 104.957 27.3131 105.11 27.238C105.264 27.163 105.433 27.1233 105.604 27.122C105.745 27.1117 105.887 27.1294 106.021 27.174C106.155 27.2186 106.278 27.2893 106.383 27.3817Z" fill="#144356"/>
</g>
<defs>
<clipPath id="clip0_65_3125">
<rect width="112" height="31" fill="white"/>
</clipPath>
</defs>
</svg>
