<svg width="147" height="41" viewBox="0 0 147 41" fill="none" xmlns="http://www.w3.org/2000/svg">
<g clip-path="url(#clip0_65_3101)">
<path d="M52.4418 30.2742C48.0267 30.2241 45.9353 29.7173 44.6573 28.8318C43.3792 27.9463 42.7344 26.4982 42.7344 24.4933C42.7745 22.923 42.9474 21.3585 43.2514 19.815L44.4656 13.8503C44.7835 12.078 45.3481 10.3547 46.1445 8.72654C46.7577 7.49426 47.675 6.42379 48.8168 5.60772C49.9442 4.83313 51.2319 4.29946 52.5929 4.04274C54.3553 3.72936 56.145 3.5783 57.9375 3.59163C59.7965 3.59163 61.2488 3.64732 62.2945 3.70302C63.2476 3.75572 64.1872 3.9434 65.083 4.25995C65.8792 4.51696 66.5437 5.05449 66.942 5.76366C67.4579 6.62518 67.7001 7.61236 67.6391 8.60402C67.6408 9.46265 67.565 10.3198 67.4125 11.1659L67.1221 12.6139H61.8936L62.1841 11.1659C62.289 10.7271 62.3474 10.2793 62.3584 9.82926C62.3892 9.48657 62.2956 9.14419 62.0934 8.86004C61.8912 8.57589 61.5929 8.36741 61.2488 8.26985C59.8749 7.98911 58.4694 7.87682 57.0661 7.9357C55.9571 7.90484 54.8477 7.98135 53.7547 8.16404C53.052 8.28168 52.3922 8.56921 51.8376 8.99944C51.2791 9.46043 50.8598 10.0567 50.6235 10.7259C50.2296 11.7617 49.9188 12.8248 49.694 13.906L48.5321 19.6981C48.2888 20.8176 48.1354 21.9534 48.0732 23.0954C48.0732 24.2092 48.4798 24.9333 49.235 25.3231C49.9903 25.713 51.3845 25.88 53.4178 25.88C54.6958 25.88 55.3349 25.8243 56.032 25.7687C56.6697 25.7325 57.2972 25.599 57.891 25.3732C58.4269 25.165 58.8762 24.7931 59.1691 24.3151C59.5905 23.6512 59.8672 22.9123 59.9824 22.143L60.267 20.695H65.4954L65.1527 22.4215C64.8999 23.9211 64.3895 25.3702 63.6423 26.7099C63.0662 27.6875 62.2252 28.4977 61.2081 29.0545C60.225 29.536 59.1646 29.856 58.0711 30.0013C56.4546 30.2145 54.8217 30.291 53.1912 30.2297" fill="white"/>
<path d="M92.7007 30.1197H88.1113L91.5969 13.072C91.6855 12.6876 91.9047 12.3423 92.2201 12.0903C92.5356 11.8383 92.9294 11.6939 93.3397 11.6797H96.4768L92.7007 30.1197Z" fill="white"/>
<path d="M115.002 24.0926C114.787 25.2789 114.333 26.4137 113.666 27.4342C113.132 28.2168 112.393 28.8507 111.522 29.272C110.622 29.6626 109.66 29.9072 108.676 29.996C107.344 30.1252 106.006 30.1829 104.667 30.1687C101.937 30.1687 100.02 29.8401 98.9161 29.1161C97.8123 28.3921 97.2256 27.1668 97.2256 25.3847C97.2932 23.8472 97.5051 22.3188 97.8588 20.8178C98.1659 19.3218 98.5932 17.8509 99.1369 16.4181C99.5361 15.3553 100.168 14.3869 100.99 13.5777C101.85 12.8061 102.884 12.2344 104.011 11.9069C105.56 11.4903 107.166 11.3025 108.775 11.35C111.621 11.35 113.596 11.6841 114.7 12.3524C115.804 13.0152 116.327 14.2404 116.333 15.9669C116.236 17.8649 115.944 19.749 115.461 21.5919H102.216C101.952 22.6176 101.779 23.6628 101.699 24.7163C101.655 25.0255 101.703 25.34 101.837 25.6245C101.97 25.909 102.184 26.1519 102.454 26.3259C102.977 26.66 103.906 26.8271 105.301 26.8271C106.481 26.8743 107.661 26.7216 108.786 26.376C109.483 26.0975 110.006 25.3178 110.297 24.0926H115.002ZM111.569 18.5233C111.751 17.8481 111.868 17.1583 111.917 16.4626C111.959 16.1757 111.909 15.8835 111.773 15.6248C111.637 15.3661 111.422 15.1533 111.156 15.0146C110.179 14.7306 109.155 14.6192 108.136 14.686C107.319 14.6689 106.502 14.7248 105.696 14.8531C105.185 14.9424 104.705 15.153 104.301 15.4657C103.941 15.792 103.664 16.1943 103.494 16.6408C103.236 17.2523 103.042 17.8865 102.913 18.5344L111.569 18.5233Z" fill="white"/>
<path d="M132.018 16.8416C132.076 16.5074 132.309 15.8948 132.303 15.672C132.303 15.2821 132.128 15.0594 131.664 14.8923C130.808 14.6968 129.93 14.6032 129.05 14.6138C127.915 14.5739 126.781 14.6883 125.68 14.9535C125.288 15.0437 124.933 15.2467 124.664 15.5354C124.395 15.824 124.225 16.1845 124.175 16.5687C124.116 16.844 124.077 17.1232 124.059 17.4041C124.034 17.6247 124.098 17.8461 124.239 18.0224C124.38 18.1988 124.586 18.3164 124.815 18.3508C125.942 18.5835 127.089 18.7122 128.242 18.7351L129.23 18.7908C130.391 18.8465 131.321 18.9579 132.018 19.0136C132.678 19.095 133.323 19.2637 133.935 19.5148C134.501 19.7754 134.982 20.1776 135.329 20.6788C135.685 21.3097 135.848 22.0239 135.8 22.7395C135.784 23.4385 135.667 24.1321 135.451 24.8001C135.218 25.8653 134.72 26.8607 133.999 27.7017C133.361 28.4142 132.568 28.9845 131.675 29.3725C130.732 29.7566 129.733 30.0007 128.713 30.0965C127.457 30.2006 126.196 30.2396 124.937 30.2135C123.484 30.2135 122.322 30.1578 121.509 30.1021C120.737 30.0499 119.976 29.902 119.243 29.6621C118.624 29.4342 118.096 29.025 117.733 28.4926C117.346 27.8325 117.181 27.0738 117.262 26.3205C117.327 25.5815 117.483 24.8524 117.727 24.1485H122.375C122.245 24.5869 122.148 25.0335 122.084 25.4851C122.074 25.7016 122.136 25.9154 122.262 26.0957C122.387 26.276 122.569 26.4132 122.781 26.4876C123.719 26.7742 124.704 26.8876 125.686 26.8218C126.898 26.9008 128.115 26.786 129.288 26.482C129.671 26.3658 130.012 26.1466 130.269 25.8505C130.526 25.5544 130.69 25.1937 130.74 24.8112C130.837 24.4843 130.895 24.1481 130.914 23.8088C130.907 23.5528 130.82 23.3048 130.665 23.0964C130.51 22.8881 130.293 22.7289 130.043 22.6392C128.91 22.3268 127.736 22.1785 126.557 22.1992C123.653 22.0878 121.672 21.8094 120.626 21.3694C119.58 20.9294 119.057 20.0328 119.116 18.7518C119.167 17.9018 119.323 17.0606 119.58 16.2456C119.815 15.1939 120.289 14.2049 120.969 13.3496C121.539 12.6546 122.305 12.1309 123.176 11.8403C124.076 11.5376 125.014 11.3503 125.965 11.2834C127.222 11.2024 128.482 11.1819 129.741 11.2221C130.903 11.2221 131.832 11.2778 132.587 11.3335C133.346 11.3886 134.09 11.5558 134.795 11.8292C135.458 12.0343 136.031 12.446 136.422 12.9987C136.852 13.6239 137.056 14.3676 137.003 15.1151C136.919 15.7184 136.785 16.3144 136.602 16.8972L132.018 16.8416Z" fill="white"/>
<path d="M141.672 30.0856H137.083L140.569 13.0992C140.653 12.6869 140.885 12.3159 141.224 12.0504C141.564 11.7849 141.989 11.6417 142.428 11.6456H145.507L141.672 30.0856Z" fill="white"/>
<path d="M80.0935 30.1196H84.6248L86.9951 18.1456C87.1654 17.2259 87.2605 16.2949 87.2797 15.361C87.2724 14.8036 87.1197 14.2568 86.8356 13.7704C86.5515 13.2841 86.145 12.8736 85.6531 12.5763C84.7817 11.9637 82.8646 11.5738 80.9475 11.5794C79.3209 11.5794 77.2295 11.4123 75.2543 12.5874L77.1075 3.55957H74.319C73.8061 3.55869 73.3092 3.73136 72.916 4.04719C72.5228 4.36302 72.2585 4.80174 72.1696 5.28607L67.1387 30.1865H71.7281L74.4468 16.8201C75.1382 14.2582 80.1342 14.921 80.9475 14.9767C81.2183 14.9718 81.487 15.024 81.7345 15.1294C81.9821 15.2348 82.2025 15.391 82.3803 15.5869C82.558 15.7829 82.6889 16.0138 82.7635 16.2634C82.8382 16.513 82.8548 16.7753 82.8123 17.0318" fill="white"/>
<path d="M39.2423 16.809L31.2718 3.55957L27.8443 9.30154L30.6386 13.9241H23.2607C23.729 14.2984 24.107 14.7655 24.3687 15.2934C24.6305 15.8212 24.7698 16.3972 24.777 16.9816C24.7657 17.5584 24.625 18.126 24.3644 18.646C24.1037 19.1659 23.7293 19.6259 23.2665 19.9946H30.5282L27.8036 24.5615L31.237 30.2923L39.1842 17.0317C39.2304 16.9664 39.251 16.8875 39.2423 16.809Z" fill="white"/>
<path d="M25.887 27.7356H12.874L6.36169 16.9478L12.8682 6.13776H25.8811L29.3029 0.401367H11.2939C10.7274 0.407871 10.1724 0.555574 9.68349 0.829961C9.19459 1.10435 8.78857 1.49597 8.50535 1.96634L0.441956 15.3327C0.15812 15.8074 0.00878906 16.345 0.00878906 16.8921C0.00878906 17.4392 0.15812 17.9769 0.441956 18.4515L8.52859 31.868C8.80732 32.3252 9.20598 32.7046 9.68497 32.9684C10.164 33.2321 10.7066 33.3712 11.259 33.3717H29.268L25.887 27.7356Z" fill="white"/>
<path d="M22.3369 16.9927C22.3369 17.7312 22.0309 18.4395 21.4862 18.9617C20.9414 19.4839 20.2026 19.7773 19.4322 19.7773C19.0495 19.7818 18.6697 19.7128 18.3152 19.5745C17.9606 19.4361 17.6386 19.2312 17.3679 18.9717C17.0972 18.7122 16.8835 18.4035 16.7392 18.0636C16.5948 17.7237 16.5229 17.3596 16.5276 16.9927C16.5276 16.2541 16.8336 15.5458 17.3783 15.0236C17.9231 14.5014 18.6619 14.208 19.4322 14.208C20.2026 14.208 20.9414 14.5014 21.4862 15.0236C22.0309 15.5458 22.3369 16.2541 22.3369 16.9927Z" fill="white"/>
<path d="M97.9052 5.95433C97.8985 6.6035 97.6383 7.22669 97.1758 7.70095C96.7134 8.17521 96.0823 8.4661 95.4072 8.51622C95.0874 8.56216 94.7611 8.54229 94.45 8.45794C94.1388 8.37358 93.85 8.22668 93.6027 8.02699C93.3554 7.82731 93.1553 7.57943 93.0156 7.29983C92.876 7.02024 92.8001 6.71535 92.793 6.40545C92.7997 5.75628 93.0599 5.13309 93.5223 4.65883C93.9848 4.18457 94.6158 3.89368 95.291 3.84356C95.6122 3.78785 95.9422 3.80075 96.2576 3.88134C96.573 3.96193 96.866 4.10823 97.1157 4.30981C97.3653 4.51139 97.5655 4.76329 97.702 5.04754C97.8385 5.3318 97.9079 5.64142 97.9052 5.95433Z" fill="white"/>
<path d="M146.994 5.85867C146.987 6.50784 146.727 7.13103 146.265 7.60529C145.802 8.07955 145.171 8.37044 144.496 8.42056C144.176 8.46562 143.85 8.44495 143.538 8.35991C143.227 8.27487 142.939 8.12741 142.691 7.9273C142.444 7.72719 142.244 7.479 142.105 7.19918C141.965 6.91936 141.889 6.6143 141.882 6.30422C141.889 5.65505 142.149 5.03186 142.611 4.5576C143.074 4.08334 143.705 3.79245 144.38 3.74233C144.699 3.70352 145.023 3.72862 145.331 3.81606C145.64 3.90349 145.926 4.05136 146.172 4.25029C146.417 4.44922 146.617 4.69488 146.759 4.97174C146.9 5.24859 146.981 5.55061 146.994 5.85867Z" fill="white"/>
<path d="M75.4805 35.4054L74.7369 39.031H73.668L74.4116 35.4332L75.4805 35.4054ZM75.6141 33.9407C75.6584 33.9851 75.6931 34.0375 75.716 34.0949C75.739 34.1522 75.7497 34.2134 75.7477 34.2748C75.7505 34.3652 75.7333 34.455 75.6973 34.5386C75.6612 34.6221 75.6071 34.6973 75.5386 34.7594C75.4739 34.8236 75.3962 34.8744 75.3103 34.9089C75.2244 34.9434 75.1321 34.9607 75.039 34.9599C74.9743 34.9627 74.9097 34.9523 74.8496 34.9293C74.7894 34.9062 74.7352 34.8711 74.6904 34.8262C74.6459 34.7808 74.6112 34.7274 74.5883 34.6691C74.5654 34.6108 74.5547 34.5487 74.5568 34.4865C74.555 34.3968 74.5721 34.3076 74.6071 34.2244C74.642 34.1411 74.694 34.0655 74.7601 34.0019C74.8255 33.939 74.9035 33.8893 74.9893 33.8558C75.0751 33.8223 75.1671 33.8057 75.2597 33.807C75.3244 33.8045 75.3889 33.8151 75.4489 33.8381C75.509 33.8611 75.5633 33.8961 75.6083 33.9407H75.6141Z" fill="white"/>
<path d="M79.6755 35.6894C79.7954 35.7987 79.8895 35.9312 79.9516 36.0782C80.0137 36.2251 80.0424 36.3831 80.0357 36.5415C80.0331 36.6616 80.0176 36.781 79.9892 36.898L79.5477 39.0143H78.4846L78.8855 37.0428C78.8912 36.9779 78.8912 36.9127 78.8855 36.8478C78.8899 36.7699 78.8772 36.692 78.8481 36.619C78.8191 36.5461 78.7744 36.4799 78.717 36.4246C78.5846 36.3166 78.4143 36.2608 78.2406 36.2686C78.0045 36.2692 77.7777 36.357 77.6074 36.5137C77.4209 36.6862 77.2951 36.91 77.2472 37.1542L76.8638 39.0199H75.7891L76.521 35.4221H77.6016L77.497 35.9178C77.6329 35.7455 77.8085 35.6056 78.01 35.509C78.2115 35.4124 78.4336 35.3617 78.6589 35.3608C78.8428 35.3463 79.0278 35.3679 79.2026 35.4244C79.3774 35.481 79.5384 35.5711 79.6755 35.6894Z" fill="white"/>
<path d="M86.681 34.3132L86.5009 35.2098H85.0079L84.212 38.9914H83.1083L83.8983 35.2043H82.4111L82.597 34.3076L86.681 34.3132Z" fill="white"/>
<path d="M88.3895 35.5216C88.6215 35.4139 88.8754 35.3568 89.1331 35.3545L89.0111 36.318H88.8717C88.56 36.3114 88.2551 36.4056 88.0061 36.5853C87.7718 36.755 87.6056 36.9969 87.5355 37.2703L87.1812 38.9968H86.1064L86.85 35.399H87.9248L87.797 36.0005C87.9536 35.7995 88.1563 35.6356 88.3895 35.5216Z" fill="white"/>
<path d="M89.8009 38.83C89.576 38.6945 89.3949 38.5017 89.278 38.2731C89.1461 38.015 89.0804 37.7305 89.0863 37.4432C89.0809 37.0752 89.1707 36.7117 89.3477 36.3851C89.5125 36.0766 89.7615 35.8167 90.0681 35.6332C90.3727 35.4508 90.7256 35.3561 91.0847 35.3603C91.3481 35.3511 91.6092 35.4108 91.8399 35.533C92.0476 35.6547 92.2102 35.8358 92.3047 36.0509L92.4383 35.3993H93.5072L92.7636 38.9971H91.6947L91.7993 38.546C91.6421 38.7041 91.4527 38.8297 91.2429 38.915C91.033 39.0002 90.8072 39.0433 90.5793 39.0416C90.3042 39.0429 90.0343 38.9695 89.8009 38.83ZM91.5437 38.067C91.7115 37.962 91.8493 37.8184 91.9445 37.6493C92.0361 37.4765 92.0857 37.2861 92.0897 37.0924C92.0958 36.9818 92.0789 36.8712 92.04 36.767C92.0011 36.6628 91.941 36.5671 91.8632 36.4853C91.7884 36.4104 91.6981 36.3513 91.598 36.312C91.4979 36.2727 91.3904 36.2539 91.2822 36.257C91.0899 36.2555 90.9015 36.3098 90.742 36.4129C90.5716 36.515 90.4331 36.6593 90.3411 36.8306C90.248 37.0028 90.1983 37.1936 90.1959 37.3875C90.1892 37.4998 90.2058 37.6122 90.2447 37.7183C90.2836 37.8244 90.344 37.9221 90.4225 38.0057C90.4975 38.0799 90.5881 38.1381 90.6882 38.1765C90.7883 38.2149 90.8957 38.2326 91.0034 38.2285C91.19 38.2228 91.3713 38.1669 91.5262 38.067H91.5437Z" fill="white"/>
<path d="M97.6845 35.6555C97.8033 35.7652 97.8963 35.898 97.9574 36.0449C98.0185 36.1918 98.0463 36.3496 98.0389 36.5076C98.0387 36.6274 98.0251 36.7469 97.9982 36.864L97.5567 38.9804H96.5226L96.9235 37.0088C96.9314 36.9441 96.9314 36.8786 96.9235 36.8139C96.9272 36.7355 96.9135 36.6574 96.8835 36.5844C96.8535 36.5115 96.8077 36.4454 96.7492 36.3906C96.685 36.3346 96.6099 36.2915 96.528 36.2637C96.4462 36.236 96.3595 36.2242 96.2728 36.2291C96.0367 36.2297 95.81 36.3174 95.6396 36.4742C95.454 36.6465 95.33 36.8707 95.2852 37.1146L94.896 38.9804H93.8213L94.5591 35.3826H95.6396L95.535 35.8782C95.6739 35.7022 95.8541 35.56 96.061 35.4632C96.2679 35.3664 96.4958 35.3178 96.726 35.3213C97.0788 35.308 97.423 35.428 97.6845 35.6555Z" fill="white"/>
<path d="M99.0263 38.8415C98.7237 38.7333 98.4499 38.5622 98.2246 38.3403L98.6777 37.7054C98.8615 37.8739 99.0736 38.0113 99.3052 38.112C99.5166 38.2067 99.7458 38.2597 99.979 38.2679C100.104 38.272 100.227 38.241 100.333 38.1788C100.375 38.1544 100.409 38.12 100.433 38.079C100.456 38.0379 100.468 37.9917 100.467 37.9449C100.464 37.8984 100.449 37.8533 100.422 37.8142C100.396 37.7752 100.359 37.7434 100.316 37.7221C100.174 37.6448 100.027 37.5778 99.8745 37.5216C99.6898 37.4538 99.5094 37.3757 99.3342 37.2877C99.1894 37.2137 99.0642 37.1089 98.9682 36.9814C98.8606 36.8393 98.8054 36.6668 98.8114 36.4913C98.8068 36.2797 98.8697 36.0719 98.9914 35.8954C99.1182 35.7161 99.2955 35.5751 99.5027 35.4888C99.7386 35.389 99.9943 35.3396 100.252 35.344C100.555 35.3457 100.856 35.3965 101.141 35.4944C101.42 35.5865 101.68 35.7261 101.908 35.9065L101.42 36.547C101.24 36.416 101.045 36.3057 100.839 36.2184C100.666 36.1476 100.481 36.108 100.293 36.1014C100.184 36.0978 100.076 36.127 99.9849 36.185C99.9474 36.2092 99.9164 36.2414 99.8942 36.2791C99.872 36.3168 99.8593 36.359 99.857 36.4022C99.86 36.4472 99.8756 36.4907 99.9022 36.5279C99.9288 36.5652 99.9654 36.5949 100.008 36.6138C100.147 36.6956 100.295 36.7629 100.45 36.8143C100.676 36.9034 100.856 36.987 101.001 37.0594C101.149 37.1387 101.278 37.2468 101.379 37.3768C101.49 37.5217 101.548 37.6982 101.542 37.8781C101.543 38.0901 101.479 38.2977 101.356 38.474C101.221 38.6523 101.038 38.7926 100.827 38.8805C100.57 38.9908 100.29 39.0423 100.008 39.0309C99.6714 39.0264 99.3386 38.9622 99.0263 38.8415Z" fill="white"/>
<path d="M105.77 35.5388C105.997 35.6739 106.18 35.8667 106.299 36.0957C106.426 36.3551 106.49 36.639 106.485 36.9255C106.49 37.2936 106.401 37.6571 106.224 37.9837C106.055 38.2899 105.807 38.5489 105.503 38.7356C105.198 38.9171 104.846 39.0135 104.487 39.014C104.223 39.0207 103.962 38.9592 103.731 38.8358C103.525 38.7156 103.362 38.5364 103.267 38.3234L102.86 40.2671H101.791L102.802 35.3717H103.871L103.772 35.834C103.937 35.6732 104.135 35.5463 104.353 35.4608C104.562 35.3752 104.787 35.3298 105.015 35.3271C105.283 35.3294 105.544 35.4027 105.77 35.5388ZM104.028 36.3129C103.86 36.4146 103.724 36.5568 103.633 36.725C103.537 36.8964 103.487 37.0877 103.487 37.282C103.477 37.5057 103.556 37.7248 103.708 37.8946C103.783 37.9698 103.873 38.029 103.973 38.0684C104.073 38.1077 104.181 38.1263 104.289 38.1229C104.482 38.1239 104.672 38.0717 104.835 37.9726C105.002 37.8681 105.138 37.7243 105.23 37.5549C105.324 37.383 105.374 37.192 105.375 36.9979C105.387 36.7758 105.308 36.5581 105.155 36.3909C105.08 36.3157 104.99 36.2565 104.89 36.2171C104.79 36.1778 104.682 36.1592 104.574 36.1625C104.396 36.1663 104.222 36.2185 104.074 36.3129H104.028Z" fill="white"/>
<path d="M108.966 34.0176L107.938 38.9798H106.863L107.892 34.0176H108.966Z" fill="white"/>
<path d="M109.774 38.8139C109.547 38.6801 109.366 38.4868 109.251 38.257C109.119 37.999 109.053 37.7145 109.059 37.4272C109.054 37.0592 109.143 36.6956 109.32 36.369C109.485 36.0605 109.734 35.8007 110.041 35.6171C110.345 35.4348 110.698 35.3401 111.057 35.3442C111.321 35.3324 111.583 35.3922 111.813 35.5169C112.02 35.6386 112.183 35.8198 112.277 36.0348L112.411 35.3832H113.48L112.736 38.981H111.667L111.772 38.5299C111.614 38.687 111.424 38.8119 111.215 38.8971C111.005 38.9823 110.78 39.026 110.552 39.0256C110.277 39.0268 110.007 38.9535 109.774 38.8139ZM111.516 38.0509C111.683 37.9465 111.819 37.8026 111.911 37.6332C112.007 37.4617 112.059 37.2708 112.062 37.0763C112.068 36.9658 112.052 36.8552 112.013 36.751C111.974 36.6468 111.914 36.551 111.836 36.4692C111.762 36.3932 111.672 36.3334 111.572 36.2939C111.471 36.2545 111.363 36.2364 111.255 36.2409C111.063 36.2394 110.874 36.2938 110.715 36.3968C110.544 36.4989 110.406 36.6432 110.314 36.8145C110.217 36.9856 110.167 37.1771 110.169 37.3715C110.156 37.5981 110.238 37.8202 110.395 37.9897C110.47 38.0639 110.561 38.1221 110.661 38.1604C110.761 38.1988 110.868 38.2165 110.976 38.2124C111.163 38.2062 111.344 38.1503 111.499 38.0509H111.516Z" fill="white"/>
<path d="M117.663 35.6385C117.782 35.7483 117.875 35.8811 117.936 36.028C117.997 36.1749 118.025 36.3326 118.017 36.4906C118.017 36.6105 118.003 36.73 117.976 36.8471L117.529 38.9634H116.466L116.867 36.9919C116.872 36.9289 116.872 36.8655 116.867 36.8025C116.871 36.7233 116.858 36.644 116.828 36.57C116.798 36.4961 116.752 36.4291 116.693 36.3737C116.561 36.2647 116.39 36.2088 116.216 36.2177C115.98 36.2183 115.753 36.3061 115.583 36.4628C115.396 36.6344 115.272 36.8589 115.229 37.1033L114.839 38.969H113.765L114.502 35.3712H115.583L115.478 35.8669C115.618 35.6915 115.798 35.5497 116.005 35.453C116.212 35.3563 116.439 35.3073 116.669 35.3099C117.033 35.2892 117.39 35.4074 117.663 35.6385Z" fill="white"/>
<path d="M119.933 37.7666C119.929 37.8222 119.929 37.8781 119.933 37.9337C119.93 37.9626 119.933 37.9918 119.942 38.0195C119.951 38.0473 119.966 38.073 119.986 38.0952C120.034 38.1295 120.094 38.1454 120.154 38.1398C120.356 38.1307 120.554 38.0813 120.735 37.995L120.869 38.7747C120.714 38.851 120.55 38.909 120.381 38.9473C120.216 38.9889 120.046 39.0095 119.875 39.0086C119.604 39.0201 119.338 38.937 119.126 38.7747C119.032 38.6937 118.958 38.5938 118.908 38.4821C118.859 38.3705 118.836 38.2498 118.841 38.1286C118.842 38.037 118.851 37.9456 118.87 37.8557L119.178 36.2462H118.661L118.801 35.5278H119.323L119.533 34.542H120.59L120.381 35.5333H121.409L121.27 36.2462H120.235L119.933 37.7666Z" fill="white"/>
<path d="M122.194 38.8028C121.968 38.6676 121.785 38.4748 121.666 38.2458C121.534 37.9878 121.468 37.7033 121.474 37.416C121.469 37.048 121.558 36.6844 121.735 36.3578C121.9 36.0494 122.149 35.7895 122.456 35.606C122.76 35.4236 123.113 35.3289 123.472 35.3331C123.736 35.3233 123.997 35.383 124.228 35.5057C124.436 35.6282 124.6 35.809 124.698 36.0237L124.826 35.3721H125.895L125.151 38.9698H124.082L124.187 38.5187C124.03 38.6769 123.84 38.8025 123.631 38.8877C123.421 38.973 123.195 39.0161 122.967 39.0144C122.694 39.0165 122.425 38.943 122.194 38.8028ZM123.937 38.0398C124.105 37.9347 124.243 37.7911 124.338 37.6221C124.43 37.4493 124.479 37.2589 124.483 37.0651C124.489 36.9546 124.472 36.844 124.434 36.7398C124.395 36.6356 124.335 36.5398 124.257 36.4581C124.183 36.382 124.093 36.3222 123.992 36.2828C123.892 36.2433 123.784 36.2252 123.676 36.2297C123.483 36.2289 123.295 36.2832 123.135 36.3857C122.965 36.4877 122.827 36.6321 122.735 36.8034C122.642 36.9756 122.592 37.1663 122.589 37.3603C122.583 37.4726 122.599 37.585 122.638 37.6911C122.677 37.7972 122.738 37.8949 122.816 37.9785C122.891 38.0527 122.982 38.1109 123.082 38.1493C123.182 38.1877 123.289 38.2054 123.397 38.2013C123.582 38.1946 123.761 38.1386 123.914 38.0398H123.937Z" fill="white"/>
<path d="M127.666 37.7602C127.662 37.8158 127.662 37.8716 127.666 37.9273C127.664 37.9566 127.668 37.986 127.678 38.0137C127.688 38.0415 127.704 38.067 127.724 38.0888C127.774 38.1213 127.833 38.137 127.893 38.1333C128.095 38.1255 128.293 38.0762 128.474 37.9885L128.607 38.7682C128.453 38.8463 128.289 38.9043 128.119 38.9409C127.956 38.9828 127.788 39.0034 127.62 39.0021C127.348 39.0158 127.081 38.9324 126.87 38.7682C126.776 38.6877 126.701 38.5879 126.652 38.4761C126.602 38.3644 126.58 38.2434 126.586 38.1222C126.586 38.0305 126.596 37.9391 126.615 37.8493L126.952 36.2342H126.44L126.58 35.5158H127.103L127.306 34.5244H128.369L128.16 35.5158H129.182L129.049 36.2286H128.015L127.666 37.7602Z" fill="white"/>
<path d="M130.995 35.3604L130.252 38.9527H129.188L129.932 35.3549L130.995 35.3604ZM131.135 33.8901C131.179 33.9356 131.214 33.9889 131.237 34.0472C131.26 34.1055 131.27 34.1676 131.268 34.2299C131.27 34.32 131.252 34.4095 131.216 34.4928C131.18 34.5761 131.127 34.6515 131.059 34.7144C130.992 34.7773 130.913 34.8268 130.827 34.8603C130.74 34.8937 130.647 34.9104 130.554 34.9093C130.489 34.9112 130.425 34.9003 130.365 34.8773C130.305 34.8543 130.251 34.8197 130.205 34.7757C130.117 34.6831 130.071 34.5609 130.077 34.4359C130.074 34.3469 130.091 34.2582 130.126 34.1757C130.161 34.0932 130.214 34.0187 130.281 33.957C130.346 33.8938 130.424 33.8439 130.51 33.8104C130.595 33.7769 130.688 33.7605 130.78 33.7621C130.845 33.7597 130.91 33.7698 130.971 33.7918C131.032 33.8138 131.087 33.8472 131.135 33.8901Z" fill="white"/>
<path d="M134.533 35.5269C134.797 35.6513 135.018 35.8443 135.172 36.0838C135.328 36.3466 135.406 36.6449 135.399 36.947C135.404 37.316 135.306 37.6796 135.114 37.9996C134.926 38.3041 134.653 38.5512 134.324 38.7125C133.966 38.8919 133.566 38.9801 133.162 38.9687C132.826 38.9757 132.494 38.905 132.192 38.7626C131.929 38.6382 131.707 38.4452 131.553 38.2057C131.398 37.9406 131.32 37.6407 131.327 37.3369C131.321 36.9697 131.42 36.6079 131.611 36.2899C131.799 35.9854 132.073 35.7382 132.401 35.577C132.761 35.401 133.16 35.313 133.563 35.3208C133.899 35.3146 134.232 35.3853 134.533 35.5269ZM132.942 36.3177C132.784 36.4137 132.655 36.5482 132.57 36.7075C132.479 36.8803 132.434 37.0713 132.436 37.2645C132.422 37.5006 132.501 37.7332 132.657 37.9161C132.734 37.9964 132.829 38.0594 132.934 38.1008C133.04 38.1422 133.153 38.1609 133.267 38.1556C133.455 38.1593 133.641 38.111 133.801 38.0163C133.961 37.9221 134.09 37.7871 134.173 37.6265C134.263 37.4538 134.309 37.2628 134.307 37.0696C134.318 36.838 134.237 36.6111 134.08 36.4347C134.007 36.3574 133.917 36.2961 133.817 36.2548C133.716 36.2135 133.608 36.1932 133.499 36.1952C133.305 36.182 133.111 36.2247 132.942 36.3177Z" fill="white"/>
<path d="M139.629 35.622C139.747 35.7318 139.84 35.8645 139.901 36.0115C139.963 36.1584 139.99 36.3161 139.983 36.4741C139.982 36.5921 139.969 36.7097 139.942 36.825L139.501 38.9469H138.432L138.833 36.9754C138.841 36.9106 138.841 36.8452 138.833 36.7804C138.836 36.7021 138.823 36.6239 138.793 36.5509C138.763 36.478 138.717 36.412 138.658 36.3572C138.594 36.3021 138.518 36.26 138.437 36.2332C138.355 36.2065 138.268 36.1956 138.182 36.2012C137.947 36.2009 137.722 36.2889 137.555 36.4463C137.364 36.6136 137.238 36.837 137.194 37.0812L136.805 38.9469H135.73L136.468 35.3547H137.549L137.444 35.8448C137.581 35.6731 137.756 35.5337 137.958 35.4371C138.159 35.3406 138.381 35.2895 138.606 35.2878C138.791 35.2746 138.977 35.2974 139.153 35.3548C139.329 35.4122 139.49 35.5031 139.629 35.622Z" fill="white"/>
</g>
<defs>
<clipPath id="clip0_65_3101">
<rect width="147" height="39.8874" fill="white" transform="translate(0 0.390625)"/>
</clipPath>
</defs>
</svg>
